<!-- Minified sprite: only the four UI symbols used in HTML -->
<svg aria-hidden="true" style="position:absolute;width:0;height:0;overflow:hidden" version="1.1"
  xmlns="http://www.w3.org/2000/svg">
  <defs>
    <symbol id="icon-icon-location" viewBox="0 0 32 32">
      <path
        d="M16 0c-8.837 0-16 7.164-16 16s7.163 16 16 16 16-7.164 16-16c0-8.836-7.163-16-16-16zM18 27.82v-3.82c0-0.553-0.447-1-1-1h-2c-0.553 0-1 0.447-1 1v3.82c-5.021-0.844-8.982-4.8-9.827-9.82h3.827c0.553 0 1-0.447 1-1v-2c0-0.553-0.447-1-1-1h-3.82c0.844-5.022 4.8-8.982 9.82-9.827v3.827c0 0.552 0.447 1 1 1h2c0.553 0 1-0.448 1-1v-3.827c5.020 0.845 8.976 4.805 9.82 9.827h-3.82c-0.553 0-1 0.447-1 1v2c0 0.553 0.447 1 1 1h3.827c-0.845 5.020-4.806 8.976-9.827 9.82z" />
    </symbol>
    <symbol id="icon-star" viewBox="0 0 22 22">
      <path
        d="M22 9.24l-7.19-.62L12 2 9.19 8.63 2 9.24l5.46 4.73L5.82 21 12 17.27 18.18 21l-1.63-7.03L22 9.24zM12 15.4l-3.76 2.27 1-4.28-3.32-2.88 4.38-.38L12 6.1l1.71 4.04 4.38.38-3.32 2.88 1 4.28L12 15.4z" />
      <path d="M0 0h24v24H0z" fill="none" />
    </symbol>
    <symbol id="icon-left" viewBox="0 0 20 20">
      <path d="M7.050 9.293l-0.707 0.707 5.657 5.657 1.414-1.414-4.242-4.243 4.242-4.243-1.414-1.414z" />
    </symbol>
    <symbol id="icon-right" viewBox="0 0 20 20">
      <path d="M12.95 10.707l0.707-0.707-5.657-5.657-1.414 1.414 4.242 4.243-4.242 4.243 1.414 1.414 4.95-4.95z" />
    </symbol>
  </defs>
</svg>